<svg xmlns="http://www.w3.org/2000/svg" width="25" height="25" viewBox="0 0 25 25">
    <path d="M6701.635-19210.562a.591.591 0 0 1-.594-.588.593.593 0 0 1 .594-.594h7.694a.593.593 0 0 1 .593.594.591.591 0 0 1-.593.588zm-5.239-.086a.308.308 0 0 1-.082-.275l.646-2.74a.3.3 0 0 1 .077-.139l6.1-6.1 2.514 2.514-6.1 6.1a.275.275 0 0 1-.14.082l-2.74.646h-.067a.278.278 0 0 1-.204-.088zm7.583-10.092 1.226-1.227a1.212 1.212 0 0 1 1.674 0l.834.836a1.166 1.166 0 0 1 .348.838 1.177 1.177 0 0 1-.348.84l-1.225 1.221z" transform="translate(-6690.615 19228.93)" />
</svg>
