<svg xmlns="http://www.w3.org/2000/svg" width="25" height="25" viewBox="0 0 25 25">
    <path d="M2.268 13.6a1.536 1.536 0 0 1-1.068-.424 1.4 1.4 0 0 1-.444-1.02V3.492h9.068v8.664a1.4 1.4 0 0 1-.444 1.02 1.539 1.539 0 0 1-1.067.425zm.9-7.034a.555.555 0 0 0 0 .81L4.442 8.59l-1.27 1.216a.553.553 0 0 0 0 .81.618.618 0 0 0 .848 0L5.29 9.4l1.272 1.214a.619.619 0 0 0 .847 0 .554.554 0 0 0 0-.809L6.138 8.591l1.271-1.215a.555.555 0 0 0 0-.81.618.618 0 0 0-.848 0L5.29 7.781 4.019 6.566a.619.619 0 0 0-.847 0zM.757 2.769A.739.739 0 0 1 0 2.048a.74.74 0 0 1 .755-.722h1.891l.536-.513A.783.783 0 0 1 3.711.6h.981V.569a.6.6 0 0 1 1.2 0V.6h.981A.784.784 0 0 1 7.4.813l.536.513h1.888a.74.74 0 0 1 .755.722.739.739 0 0 1-.755.722z" transform="translate(7.21 5.701)" />
</svg>
