<svg xmlns="http://www.w3.org/2000/svg" width="23.454" height="18.242" viewBox="0 0 23.454 18.242">
    <path data-name="Path 6951" d="M21.965 61.2H1.489A1.489 1.489 0 0 0 0 62.69v15.264a1.489 1.489 0 0 0 1.489 1.489h20.476a1.489 1.489 0 0 0 1.489-1.489V62.69a1.489 1.489 0 0 0-1.489-1.49zm0 1.489V73.52l-2.935-2.668a1.117 1.117 0 0 0-1.541.037l-2.97 2.97-5.856-7a1.117 1.117 0 0 0-1.7-.012L1.489 73.21V62.69zM15.636 66.6a2.048 2.048 0 1 1 2.048 2.048 2.047 2.047 0 0 1-2.048-2.048z" transform="translate(0 -61.201)" />
</svg>
